<svg width="32" height="32" viewBox="0 0 32 32" fill="none" xmlns="http://www.w3.org/2000/svg">
<mask id="path-1-inside-1_441_6631" fill="white">
<path d="M27.1444 17.2656C29.8169 17.2737 31.9837 19.4794 32 22.2075V27.0431C31.9837 29.7737 29.8194 31.9837 27.1444 32H22.4075C19.735 31.9831 17.5744 29.7712 17.5669 27.0431V22.2075C17.5669 19.4781 19.7338 17.2656 22.4075 17.2656H27.1444ZM6.80063 17.2656C7.04577 17.2397 7.29321 17.2842 7.51401 17.3937C7.73482 17.5033 7.91986 17.6735 8.0475 17.8844C8.1778 18.0975 8.24675 18.3424 8.24675 18.5922C8.24675 18.842 8.1778 19.0869 8.0475 19.3C7.91986 19.5109 7.73482 19.681 7.51401 19.7906C7.29321 19.9002 7.04577 19.9446 6.80063 19.9187H4.85563C3.61501 19.9187 2.60563 20.9406 2.59876 22.2075V26.9825C2.63001 28.2387 3.62501 29.2475 4.85563 29.2712H9.625C9.92185 29.2728 10.216 29.2148 10.49 29.1006C10.764 28.9863 11.0122 28.8182 11.22 28.6062C11.6455 28.1726 11.8833 27.5888 11.8819 26.9812V19.8125L11.8619 19.6344C11.8506 19.4009 11.9004 19.1685 12.0065 18.9602C12.1127 18.7519 12.2713 18.575 12.4669 18.4469C12.6861 18.3044 12.9435 18.2323 13.2049 18.24C13.4662 18.2477 13.7189 18.3349 13.9294 18.49C14.1421 18.648 14.3036 18.8651 14.3937 19.1143C14.4837 19.3636 14.4983 19.6338 14.4356 19.8912V27.0281C14.4356 29.7656 12.2619 31.985 9.58 31.985H4.85563C2.19688 31.9287 0.0550069 29.7419 6.94953e-06 27.0281V22.2075C-0.00217345 20.8995 0.508796 19.6428 1.42313 18.7075C1.8702 18.2504 2.4042 17.8873 2.99369 17.6397C3.58317 17.3921 4.21624 17.2649 4.85563 17.2656H6.80063ZM27.1444 19.9187H22.4075C21.1694 19.9187 20.165 20.9431 20.165 22.2075V27.0431C20.1597 27.6496 20.3942 28.2337 20.8175 28.6681C21.0242 28.8802 21.2715 29.0485 21.5447 29.1629C21.8179 29.2773 22.1113 29.3354 22.4075 29.3337H27.1444C27.4405 29.3353 27.734 29.2772 28.0072 29.1628C28.2803 29.0485 28.5277 28.8802 28.7344 28.6681C29.1576 28.2337 29.3921 27.6496 29.3869 27.0431V22.2075C29.3875 21.6029 29.1518 21.022 28.73 20.5887C28.5236 20.3771 28.2771 20.2088 28.0048 20.0938C27.7325 19.9787 27.44 19.9192 27.1444 19.9187ZM27.1444 0C29.7969 0.0625 31.93 2.25 31.985 4.95687V9.7775C32.0033 11.0828 31.5098 12.3435 30.61 13.2894C30.1701 13.752 29.6423 14.1221 29.0575 14.3781C28.4727 14.6341 27.8427 14.7707 27.2044 14.78H25.2437C24.9212 14.7385 24.6249 14.5809 24.4102 14.3368C24.1954 14.0926 24.0769 13.7786 24.0769 13.4534C24.0769 13.1283 24.1954 12.8142 24.4102 12.5701C24.6249 12.3259 24.9212 12.1684 25.2437 12.1269H27.1444C27.4431 12.1246 27.7384 12.0625 28.0127 11.944C28.287 11.8256 28.5347 11.6534 28.7412 11.4375C29.1637 10.9955 29.3954 10.4051 29.3862 9.79375V4.95687C29.3706 3.69937 28.375 2.6875 27.1444 2.66812H22.4075C21.1694 2.66812 20.165 3.6925 20.165 4.95687V12.1875L20.15 12.3537C20.1035 12.6706 19.9443 12.9601 19.7016 13.169C19.4589 13.378 19.149 13.4924 18.8288 13.4912C18.6571 13.4869 18.4881 13.4481 18.3318 13.3771C18.1755 13.3061 18.035 13.2045 17.9188 13.0781C17.68 12.8195 17.5535 12.4767 17.5669 12.125V4.95687C17.5604 3.6488 18.0676 2.39044 18.9794 1.4525C19.425 0.993888 19.9578 0.629104 20.5466 0.379647C21.1353 0.13019 21.7681 0.0011049 22.4075 0H27.1444ZM9.5925 0C12.2706 0.008125 14.4375 2.2225 14.4481 4.95687V9.7925C14.4503 11.1005 13.9393 12.3572 13.025 13.2925C12.578 13.7497 12.044 14.1127 11.4545 14.3604C10.865 14.608 10.2319 14.7352 9.5925 14.7344H4.85563C2.18313 14.7262 0.0162569 12.5206 6.94953e-06 9.7925V4.95687C0.0162569 2.22625 2.18063 0.01625 4.85563 0H9.5925ZM9.5925 2.66812H4.85563C4.55633 2.66238 4.25898 2.71735 3.98151 2.82971C3.70404 2.94208 3.45223 3.1095 3.24126 3.32187C2.80939 3.75629 2.56753 4.34432 2.56876 4.95687V9.7925C2.56233 10.0996 2.61704 10.4049 2.7297 10.6906C2.84236 10.9763 3.01073 11.2368 3.22501 11.4569C3.43678 11.6737 3.69072 11.8448 3.97116 11.9597C4.25161 12.0746 4.55262 12.1309 4.85563 12.125H9.5925C9.89081 12.1227 10.1856 12.0607 10.4596 11.9427C10.7335 11.8246 10.981 11.6528 11.1875 11.4375C11.6099 10.9954 11.8417 10.4051 11.8331 9.79375V4.95687C11.825 3.69625 10.8256 2.67625 9.59063 2.66812H9.5925Z"/>
<path d="M31.985 4.95687C31.93 2.25 29.7969 0.0625 27.1444 0H22.4075C21.7681 0.0011049 21.1353 0.13019 20.5466 0.379647C19.9578 0.629104 19.425 0.993888 18.9794 1.4525C18.0676 2.39044 17.5604 3.6488 17.5669 4.95687V12.125C17.5535 12.4767 17.68 12.8195 17.9188 13.0781C18.035 13.2045 18.1755 13.3061 18.3318 13.3771C18.4881 13.4481 18.6571 13.4869 18.8288 13.4912C19.149 13.4924 19.4589 13.378 19.7016 13.169C19.9443 12.9601 20.1035 12.6706 20.15 12.3537L20.165 12.1875V4.95687C20.165 3.6925 21.1694 2.66812 22.4075 2.66812H27.1444C28.375 2.6875 29.3706 3.69937 29.3862 4.95687V9.79375C29.3954 10.4051 29.1637 10.9955 28.7412 11.4375C28.5347 11.6534 28.287 11.8256 28.0127 11.944C27.7384 12.0625 27.4431 12.1246 27.1444 12.1269H25.2437C24.9212 12.1684 24.6249 12.3259 24.4102 12.5701C24.1954 12.8142 24.0769 13.1283 24.0769 13.4534C24.0769 13.7786 24.1954 14.0926 24.4102 14.3368C24.6249 14.5809 24.9212 14.7385 25.2437 14.78H27.2044C27.8427 14.7707 28.4727 14.6341 29.0575 14.3781C29.6423 14.1221 30.1701 13.752 30.61 13.2894C31.5098 12.3435 32.0033 11.0828 31.985 9.7775V4.95687Z"/>
</mask>
<path d="M27.1444 17.2656C29.8169 17.2737 31.9837 19.4794 32 22.2075V27.0431C31.9837 29.7737 29.8194 31.9837 27.1444 32H22.4075C19.735 31.9831 17.5744 29.7712 17.5669 27.0431V22.2075C17.5669 19.4781 19.7338 17.2656 22.4075 17.2656H27.1444ZM6.80063 17.2656C7.04577 17.2397 7.29321 17.2842 7.51401 17.3937C7.73482 17.5033 7.91986 17.6735 8.0475 17.8844C8.1778 18.0975 8.24675 18.3424 8.24675 18.5922C8.24675 18.842 8.1778 19.0869 8.0475 19.3C7.91986 19.5109 7.73482 19.681 7.51401 19.7906C7.29321 19.9002 7.04577 19.9446 6.80063 19.9187H4.85563C3.61501 19.9187 2.60563 20.9406 2.59876 22.2075V26.9825C2.63001 28.2387 3.62501 29.2475 4.85563 29.2712H9.625C9.92185 29.2728 10.216 29.2148 10.49 29.1006C10.764 28.9863 11.0122 28.8182 11.22 28.6062C11.6455 28.1726 11.8833 27.5888 11.8819 26.9812V19.8125L11.8619 19.6344C11.8506 19.4009 11.9004 19.1685 12.0065 18.9602C12.1127 18.7519 12.2713 18.575 12.4669 18.4469C12.6861 18.3044 12.9435 18.2323 13.2049 18.24C13.4662 18.2477 13.7189 18.3349 13.9294 18.49C14.1421 18.648 14.3036 18.8651 14.3937 19.1143C14.4837 19.3636 14.4983 19.6338 14.4356 19.8912V27.0281C14.4356 29.7656 12.2619 31.985 9.58 31.985H4.85563C2.19688 31.9287 0.0550069 29.7419 6.94953e-06 27.0281V22.2075C-0.00217345 20.8995 0.508796 19.6428 1.42313 18.7075C1.8702 18.2504 2.4042 17.8873 2.99369 17.6397C3.58317 17.3921 4.21624 17.2649 4.85563 17.2656H6.80063ZM27.1444 19.9187H22.4075C21.1694 19.9187 20.165 20.9431 20.165 22.2075V27.0431C20.1597 27.6496 20.3942 28.2337 20.8175 28.6681C21.0242 28.8802 21.2715 29.0485 21.5447 29.1629C21.8179 29.2773 22.1113 29.3354 22.4075 29.3337H27.1444C27.4405 29.3353 27.734 29.2772 28.0072 29.1628C28.2803 29.0485 28.5277 28.8802 28.7344 28.6681C29.1576 28.2337 29.3921 27.6496 29.3869 27.0431V22.2075C29.3875 21.6029 29.1518 21.022 28.73 20.5887C28.5236 20.3771 28.2771 20.2088 28.0048 20.0938C27.7325 19.9787 27.44 19.9192 27.1444 19.9187ZM27.1444 0C29.7969 0.0625 31.93 2.25 31.985 4.95687V9.7775C32.0033 11.0828 31.5098 12.3435 30.61 13.2894C30.1701 13.752 29.6423 14.1221 29.0575 14.3781C28.4727 14.6341 27.8427 14.7707 27.2044 14.78H25.2437C24.9212 14.7385 24.6249 14.5809 24.4102 14.3368C24.1954 14.0926 24.0769 13.7786 24.0769 13.4534C24.0769 13.1283 24.1954 12.8142 24.4102 12.5701C24.6249 12.3259 24.9212 12.1684 25.2437 12.1269H27.1444C27.4431 12.1246 27.7384 12.0625 28.0127 11.944C28.287 11.8256 28.5347 11.6534 28.7412 11.4375C29.1637 10.9955 29.3954 10.4051 29.3862 9.79375V4.95687C29.3706 3.69937 28.375 2.6875 27.1444 2.66812H22.4075C21.1694 2.66812 20.165 3.6925 20.165 4.95687V12.1875L20.15 12.3537C20.1035 12.6706 19.9443 12.9601 19.7016 13.169C19.4589 13.378 19.149 13.4924 18.8288 13.4912C18.6571 13.4869 18.4881 13.4481 18.3318 13.3771C18.1755 13.3061 18.035 13.2045 17.9188 13.0781C17.68 12.8195 17.5535 12.4767 17.5669 12.125V4.95687C17.5604 3.6488 18.0676 2.39044 18.9794 1.4525C19.425 0.993888 19.9578 0.629104 20.5466 0.379647C21.1353 0.13019 21.7681 0.0011049 22.4075 0H27.1444ZM9.5925 0C12.2706 0.008125 14.4375 2.2225 14.4481 4.95687V9.7925C14.4503 11.1005 13.9393 12.3572 13.025 13.2925C12.578 13.7497 12.044 14.1127 11.4545 14.3604C10.865 14.608 10.2319 14.7352 9.5925 14.7344H4.85563C2.18313 14.7262 0.0162569 12.5206 6.94953e-06 9.7925V4.95687C0.0162569 2.22625 2.18063 0.01625 4.85563 0H9.5925ZM9.5925 2.66812H4.85563C4.55633 2.66238 4.25898 2.71735 3.98151 2.82971C3.70404 2.94208 3.45223 3.1095 3.24126 3.32187C2.80939 3.75629 2.56753 4.34432 2.56876 4.95687V9.7925C2.56233 10.0996 2.61704 10.4049 2.7297 10.6906C2.84236 10.9763 3.01073 11.2368 3.22501 11.4569C3.43678 11.6737 3.69072 11.8448 3.97116 11.9597C4.25161 12.0746 4.55262 12.1309 4.85563 12.125H9.5925C9.89081 12.1227 10.1856 12.0607 10.4596 11.9427C10.7335 11.8246 10.981 11.6528 11.1875 11.4375C11.6099 10.9954 11.8417 10.4051 11.8331 9.79375V4.95687C11.825 3.69625 10.8256 2.67625 9.59063 2.66812H9.5925Z" fill="url(#paint0_linear_441_6631)"/>
<path d="M27.1444 17.2656C29.8169 17.2737 31.9837 19.4794 32 22.2075V27.0431C31.9837 29.7737 29.8194 31.9837 27.1444 32H22.4075C19.735 31.9831 17.5744 29.7712 17.5669 27.0431V22.2075C17.5669 19.4781 19.7338 17.2656 22.4075 17.2656H27.1444ZM6.80063 17.2656C7.04577 17.2397 7.29321 17.2842 7.51401 17.3937C7.73482 17.5033 7.91986 17.6735 8.0475 17.8844C8.1778 18.0975 8.24675 18.3424 8.24675 18.5922C8.24675 18.842 8.1778 19.0869 8.0475 19.3C7.91986 19.5109 7.73482 19.681 7.51401 19.7906C7.29321 19.9002 7.04577 19.9446 6.80063 19.9187H4.85563C3.61501 19.9187 2.60563 20.9406 2.59876 22.2075V26.9825C2.63001 28.2387 3.62501 29.2475 4.85563 29.2712H9.625C9.92185 29.2728 10.216 29.2148 10.49 29.1006C10.764 28.9863 11.0122 28.8182 11.22 28.6062C11.6455 28.1726 11.8833 27.5888 11.8819 26.9812V19.8125L11.8619 19.6344C11.8506 19.4009 11.9004 19.1685 12.0065 18.9602C12.1127 18.7519 12.2713 18.575 12.4669 18.4469C12.6861 18.3044 12.9435 18.2323 13.2049 18.24C13.4662 18.2477 13.7189 18.3349 13.9294 18.49C14.1421 18.648 14.3036 18.8651 14.3937 19.1143C14.4837 19.3636 14.4983 19.6338 14.4356 19.8912V27.0281C14.4356 29.7656 12.2619 31.985 9.58 31.985H4.85563C2.19688 31.9287 0.0550069 29.7419 6.94953e-06 27.0281V22.2075C-0.00217345 20.8995 0.508796 19.6428 1.42313 18.7075C1.8702 18.2504 2.4042 17.8873 2.99369 17.6397C3.58317 17.3921 4.21624 17.2649 4.85563 17.2656H6.80063ZM27.1444 19.9187H22.4075C21.1694 19.9187 20.165 20.9431 20.165 22.2075V27.0431C20.1597 27.6496 20.3942 28.2337 20.8175 28.6681C21.0242 28.8802 21.2715 29.0485 21.5447 29.1629C21.8179 29.2773 22.1113 29.3354 22.4075 29.3337H27.1444C27.4405 29.3353 27.734 29.2772 28.0072 29.1628C28.2803 29.0485 28.5277 28.8802 28.7344 28.6681C29.1576 28.2337 29.3921 27.6496 29.3869 27.0431V22.2075C29.3875 21.6029 29.1518 21.022 28.73 20.5887C28.5236 20.3771 28.2771 20.2088 28.0048 20.0938C27.7325 19.9787 27.44 19.9192 27.1444 19.9187ZM27.1444 0C29.7969 0.0625 31.93 2.25 31.985 4.95687V9.7775C32.0033 11.0828 31.5098 12.3435 30.61 13.2894C30.1701 13.752 29.6423 14.1221 29.0575 14.3781C28.4727 14.6341 27.8427 14.7707 27.2044 14.78H25.2437C24.9212 14.7385 24.6249 14.5809 24.4102 14.3368C24.1954 14.0926 24.0769 13.7786 24.0769 13.4534C24.0769 13.1283 24.1954 12.8142 24.4102 12.5701C24.6249 12.3259 24.9212 12.1684 25.2437 12.1269H27.1444C27.4431 12.1246 27.7384 12.0625 28.0127 11.944C28.287 11.8256 28.5347 11.6534 28.7412 11.4375C29.1637 10.9955 29.3954 10.4051 29.3862 9.79375V4.95687C29.3706 3.69937 28.375 2.6875 27.1444 2.66812H22.4075C21.1694 2.66812 20.165 3.6925 20.165 4.95687V12.1875L20.15 12.3537C20.1035 12.6706 19.9443 12.9601 19.7016 13.169C19.4589 13.378 19.149 13.4924 18.8288 13.4912C18.6571 13.4869 18.4881 13.4481 18.3318 13.3771C18.1755 13.3061 18.035 13.2045 17.9188 13.0781C17.68 12.8195 17.5535 12.4767 17.5669 12.125V4.95687C17.5604 3.6488 18.0676 2.39044 18.9794 1.4525C19.425 0.993888 19.9578 0.629104 20.5466 0.379647C21.1353 0.13019 21.7681 0.0011049 22.4075 0H27.1444ZM9.5925 0C12.2706 0.008125 14.4375 2.2225 14.4481 4.95687V9.7925C14.4503 11.1005 13.9393 12.3572 13.025 13.2925C12.578 13.7497 12.044 14.1127 11.4545 14.3604C10.865 14.608 10.2319 14.7352 9.5925 14.7344H4.85563C2.18313 14.7262 0.0162569 12.5206 6.94953e-06 9.7925V4.95687C0.0162569 2.22625 2.18063 0.01625 4.85563 0H9.5925ZM9.5925 2.66812H4.85563C4.55633 2.66238 4.25898 2.71735 3.98151 2.82971C3.70404 2.94208 3.45223 3.1095 3.24126 3.32187C2.80939 3.75629 2.56753 4.34432 2.56876 4.95687V9.7925C2.56233 10.0996 2.61704 10.4049 2.7297 10.6906C2.84236 10.9763 3.01073 11.2368 3.22501 11.4569C3.43678 11.6737 3.69072 11.8448 3.97116 11.9597C4.25161 12.0746 4.55262 12.1309 4.85563 12.125H9.5925C9.89081 12.1227 10.1856 12.0607 10.4596 11.9427C10.7335 11.8246 10.981 11.6528 11.1875 11.4375C11.6099 10.9954 11.8417 10.4051 11.8331 9.79375V4.95687C11.825 3.69625 10.8256 2.67625 9.59063 2.66812H9.5925Z" fill="#55A1FF" fill-opacity="0.5"/>
<path d="M31.985 4.95687C31.93 2.25 29.7969 0.0625 27.1444 0H22.4075C21.7681 0.0011049 21.1353 0.13019 20.5466 0.379647C19.9578 0.629104 19.425 0.993888 18.9794 1.4525C18.0676 2.39044 17.5604 3.6488 17.5669 4.95687V12.125C17.5535 12.4767 17.68 12.8195 17.9188 13.0781C18.035 13.2045 18.1755 13.3061 18.3318 13.3771C18.4881 13.4481 18.6571 13.4869 18.8288 13.4912C19.149 13.4924 19.4589 13.378 19.7016 13.169C19.9443 12.9601 20.1035 12.6706 20.15 12.3537L20.165 12.1875V4.95687C20.165 3.6925 21.1694 2.66812 22.4075 2.66812H27.1444C28.375 2.6875 29.3706 3.69937 29.3862 4.95687V9.79375C29.3954 10.4051 29.1637 10.9955 28.7412 11.4375C28.5347 11.6534 28.287 11.8256 28.0127 11.944C27.7384 12.0625 27.4431 12.1246 27.1444 12.1269H25.2437C24.9212 12.1684 24.6249 12.3259 24.4102 12.5701C24.1954 12.8142 24.0769 13.1283 24.0769 13.4534C24.0769 13.7786 24.1954 14.0926 24.4102 14.3368C24.6249 14.5809 24.9212 14.7385 25.2437 14.78H27.2044C27.8427 14.7707 28.4727 14.6341 29.0575 14.3781C29.6423 14.1221 30.1701 13.752 30.61 13.2894C31.5098 12.3435 32.0033 11.0828 31.985 9.7775V4.95687Z" fill="url(#paint1_linear_441_6631)"/>
<path d="M31.985 4.95687C31.93 2.25 29.7969 0.0625 27.1444 0H22.4075C21.7681 0.0011049 21.1353 0.13019 20.5466 0.379647C19.9578 0.629104 19.425 0.993888 18.9794 1.4525C18.0676 2.39044 17.5604 3.6488 17.5669 4.95687V12.125C17.5535 12.4767 17.68 12.8195 17.9188 13.0781C18.035 13.2045 18.1755 13.3061 18.3318 13.3771C18.4881 13.4481 18.6571 13.4869 18.8288 13.4912C19.149 13.4924 19.4589 13.378 19.7016 13.169C19.9443 12.9601 20.1035 12.6706 20.15 12.3537L20.165 12.1875V4.95687C20.165 3.6925 21.1694 2.66812 22.4075 2.66812H27.1444C28.375 2.6875 29.3706 3.69937 29.3862 4.95687V9.79375C29.3954 10.4051 29.1637 10.9955 28.7412 11.4375C28.5347 11.6534 28.287 11.8256 28.0127 11.944C27.7384 12.0625 27.4431 12.1246 27.1444 12.1269H25.2437C24.9212 12.1684 24.6249 12.3259 24.4102 12.5701C24.1954 12.8142 24.0769 13.1283 24.0769 13.4534C24.0769 13.7786 24.1954 14.0926 24.4102 14.3368C24.6249 14.5809 24.9212 14.7385 25.2437 14.78H27.2044C27.8427 14.7707 28.4727 14.6341 29.0575 14.3781C29.6423 14.1221 30.1701 13.752 30.61 13.2894C31.5098 12.3435 32.0033 11.0828 31.985 9.7775V4.95687Z" fill="#55A1FF" fill-opacity="0.5"/>
<path d="M27.1444 17.2656C29.8169 17.2737 31.9837 19.4794 32 22.2075V27.0431C31.9837 29.7737 29.8194 31.9837 27.1444 32H22.4075C19.735 31.9831 17.5744 29.7712 17.5669 27.0431V22.2075C17.5669 19.4781 19.7338 17.2656 22.4075 17.2656H27.1444ZM6.80063 17.2656C7.04577 17.2397 7.29321 17.2842 7.51401 17.3937C7.73482 17.5033 7.91986 17.6735 8.0475 17.8844C8.1778 18.0975 8.24675 18.3424 8.24675 18.5922C8.24675 18.842 8.1778 19.0869 8.0475 19.3C7.91986 19.5109 7.73482 19.681 7.51401 19.7906C7.29321 19.9002 7.04577 19.9446 6.80063 19.9187H4.85563C3.61501 19.9187 2.60563 20.9406 2.59876 22.2075V26.9825C2.63001 28.2387 3.62501 29.2475 4.85563 29.2712H9.625C9.92185 29.2728 10.216 29.2148 10.49 29.1006C10.764 28.9863 11.0122 28.8182 11.22 28.6062C11.6455 28.1726 11.8833 27.5888 11.8819 26.9812V19.8125L11.8619 19.6344C11.8506 19.4009 11.9004 19.1685 12.0065 18.9602C12.1127 18.7519 12.2713 18.575 12.4669 18.4469C12.6861 18.3044 12.9435 18.2323 13.2049 18.24C13.4662 18.2477 13.7189 18.3349 13.9294 18.49C14.1421 18.648 14.3036 18.8651 14.3937 19.1143C14.4837 19.3636 14.4983 19.6338 14.4356 19.8912V27.0281C14.4356 29.7656 12.2619 31.985 9.58 31.985H4.85563C2.19688 31.9287 0.0550069 29.7419 6.94953e-06 27.0281V22.2075C-0.00217345 20.8995 0.508796 19.6428 1.42313 18.7075C1.8702 18.2504 2.4042 17.8873 2.99369 17.6397C3.58317 17.3921 4.21624 17.2649 4.85563 17.2656H6.80063ZM27.1444 19.9187H22.4075C21.1694 19.9187 20.165 20.9431 20.165 22.2075V27.0431C20.1597 27.6496 20.3942 28.2337 20.8175 28.6681C21.0242 28.8802 21.2715 29.0485 21.5447 29.1629C21.8179 29.2773 22.1113 29.3354 22.4075 29.3337H27.1444C27.4405 29.3353 27.734 29.2772 28.0072 29.1628C28.2803 29.0485 28.5277 28.8802 28.7344 28.6681C29.1576 28.2337 29.3921 27.6496 29.3869 27.0431V22.2075C29.3875 21.6029 29.1518 21.022 28.73 20.5887C28.5236 20.3771 28.2771 20.2088 28.0048 20.0938C27.7325 19.9787 27.44 19.9192 27.1444 19.9187ZM27.1444 0C29.7969 0.0625 31.93 2.25 31.985 4.95687V9.7775C32.0033 11.0828 31.5098 12.3435 30.61 13.2894C30.1701 13.752 29.6423 14.1221 29.0575 14.3781C28.4727 14.6341 27.8427 14.7707 27.2044 14.78H25.2437C24.9212 14.7385 24.6249 14.5809 24.4102 14.3368C24.1954 14.0926 24.0769 13.7786 24.0769 13.4534C24.0769 13.1283 24.1954 12.8142 24.4102 12.5701C24.6249 12.3259 24.9212 12.1684 25.2437 12.1269H27.1444C27.4431 12.1246 27.7384 12.0625 28.0127 11.944C28.287 11.8256 28.5347 11.6534 28.7412 11.4375C29.1637 10.9955 29.3954 10.4051 29.3862 9.79375V4.95687C29.3706 3.69937 28.375 2.6875 27.1444 2.66812H22.4075C21.1694 2.66812 20.165 3.6925 20.165 4.95687V12.1875L20.15 12.3537C20.1035 12.6706 19.9443 12.9601 19.7016 13.169C19.4589 13.378 19.149 13.4924 18.8288 13.4912C18.6571 13.4869 18.4881 13.4481 18.3318 13.3771C18.1755 13.3061 18.035 13.2045 17.9188 13.0781C17.68 12.8195 17.5535 12.4767 17.5669 12.125V4.95687C17.5604 3.6488 18.0676 2.39044 18.9794 1.4525C19.425 0.993888 19.9578 0.629104 20.5466 0.379647C21.1353 0.13019 21.7681 0.0011049 22.4075 0H27.1444ZM9.5925 0C12.2706 0.008125 14.4375 2.2225 14.4481 4.95687V9.7925C14.4503 11.1005 13.9393 12.3572 13.025 13.2925C12.578 13.7497 12.044 14.1127 11.4545 14.3604C10.865 14.608 10.2319 14.7352 9.5925 14.7344H4.85563C2.18313 14.7262 0.0162569 12.5206 6.94953e-06 9.7925V4.95687C0.0162569 2.22625 2.18063 0.01625 4.85563 0H9.5925ZM9.5925 2.66812H4.85563C4.55633 2.66238 4.25898 2.71735 3.98151 2.82971C3.70404 2.94208 3.45223 3.1095 3.24126 3.32187C2.80939 3.75629 2.56753 4.34432 2.56876 4.95687V9.7925C2.56233 10.0996 2.61704 10.4049 2.7297 10.6906C2.84236 10.9763 3.01073 11.2368 3.22501 11.4569C3.43678 11.6737 3.69072 11.8448 3.97116 11.9597C4.25161 12.0746 4.55262 12.1309 4.85563 12.125H9.5925C9.89081 12.1227 10.1856 12.0607 10.4596 11.9427C10.7335 11.8246 10.981 11.6528 11.1875 11.4375C11.6099 10.9954 11.8417 10.4051 11.8331 9.79375V4.95687C11.825 3.69625 10.8256 2.67625 9.59063 2.66812H9.5925Z" stroke="black" stroke-width="0.556522" mask="url(#path-1-inside-1_441_6631)"/>
<path d="M31.985 4.95687C31.93 2.25 29.7969 0.0625 27.1444 0H22.4075C21.7681 0.0011049 21.1353 0.13019 20.5466 0.379647C19.9578 0.629104 19.425 0.993888 18.9794 1.4525C18.0676 2.39044 17.5604 3.6488 17.5669 4.95687V12.125C17.5535 12.4767 17.68 12.8195 17.9188 13.0781C18.035 13.2045 18.1755 13.3061 18.3318 13.3771C18.4881 13.4481 18.6571 13.4869 18.8288 13.4912C19.149 13.4924 19.4589 13.378 19.7016 13.169C19.9443 12.9601 20.1035 12.6706 20.15 12.3537L20.165 12.1875V4.95687C20.165 3.6925 21.1694 2.66812 22.4075 2.66812H27.1444C28.375 2.6875 29.3706 3.69937 29.3862 4.95687V9.79375C29.3954 10.4051 29.1637 10.9955 28.7412 11.4375C28.5347 11.6534 28.287 11.8256 28.0127 11.944C27.7384 12.0625 27.4431 12.1246 27.1444 12.1269H25.2437C24.9212 12.1684 24.6249 12.3259 24.4102 12.5701C24.1954 12.8142 24.0769 13.1283 24.0769 13.4534C24.0769 13.7786 24.1954 14.0926 24.4102 14.3368C24.6249 14.5809 24.9212 14.7385 25.2437 14.78H27.2044C27.8427 14.7707 28.4727 14.6341 29.0575 14.3781C29.6423 14.1221 30.1701 13.752 30.61 13.2894C31.5098 12.3435 32.0033 11.0828 31.985 9.7775V4.95687Z" stroke="black" stroke-width="0.556522" mask="url(#path-1-inside-1_441_6631)"/>
<path d="M31.8463 9.7775L31.8464 9.77945C31.8642 11.0484 31.3844 12.2739 30.5097 13.1935L30.5097 13.1935C30.0826 13.6427 29.57 14.0021 29.0022 14.2507C28.4347 14.4991 27.8233 14.6317 27.2039 14.6409H25.2534C24.9678 14.602 24.7056 14.4615 24.5151 14.2449C24.3227 14.0261 24.2166 13.7448 24.2166 13.4534C24.2166 13.1621 24.3227 12.8807 24.5151 12.662C24.7056 12.4454 24.9678 12.3049 25.2534 12.266L27.1449 12.266L27.1459 12.266C27.4633 12.2636 27.7769 12.1976 28.0683 12.0718C28.3597 11.946 28.6229 11.763 28.8423 11.5337L28.8423 11.5336C29.2898 11.0655 29.5353 10.4402 29.5259 9.79271L29.5259 4.95687L29.5259 4.95515C29.5093 3.62442 28.455 2.5496 27.1471 2.52901V2.52899H27.1449H22.408C21.0904 2.52899 20.0264 3.61832 20.0264 4.95687V12.1812L20.0123 12.3373C19.97 12.6196 19.8277 12.8773 19.6113 13.0636C19.3944 13.2504 19.1175 13.3528 18.8312 13.3521C18.6788 13.3481 18.5287 13.3135 18.3898 13.2504C18.2505 13.1872 18.1252 13.0965 18.0216 12.9839L18.0215 12.9838C17.8077 12.7521 17.6944 12.4453 17.7064 12.1303L17.7065 12.1303V12.125L17.7065 4.95687L17.7065 4.95618C17.7002 3.68457 18.1932 2.46128 19.0796 1.54948L19.0797 1.54945C19.5123 1.10416 20.0297 0.749966 20.6014 0.507753C21.173 0.265555 21.7873 0.140219 22.4081 0.13913H27.1432C29.7174 0.200659 31.7921 2.32438 31.8464 4.9583L31.8463 9.7775Z" fill="white" stroke="black" stroke-width="0.278261"/>
<defs>
<linearGradient id="paint0_linear_441_6631" x1="16" y1="0" x2="2.36996e-06" y2="14.4" gradientUnits="userSpaceOnUse">
<stop stop-color="#2F83EA"/>
<stop offset="1" stop-color="#14529E"/>
</linearGradient>
<linearGradient id="paint1_linear_441_6631" x1="16" y1="0" x2="2.36996e-06" y2="14.4" gradientUnits="userSpaceOnUse">
<stop stop-color="#2F83EA"/>
<stop offset="1" stop-color="#14529E"/>
</linearGradient>
</defs>
</svg>
