<svg width="20" height="20" viewBox="0 0 20 20" fill="none" xmlns="http://www.w3.org/2000/svg">
<path d="M11.8291 10L19.6207 2.20841C19.7414 2.08828 19.8371 1.94541 19.9021 1.78806C19.9672 1.63072 20.0005 1.46203 19.9999 1.29175C20.002 1.12187 19.9695 0.953339 19.9043 0.79645C19.8391 0.63956 19.7426 0.497608 19.6207 0.379261C19.5024 0.257367 19.3604 0.160877 19.2035 0.0956856C19.0467 0.0304942 18.8781 -0.00203046 18.7082 9.81184e-05C18.538 -0.000457064 18.3693 0.032769 18.2119 0.0978528C18.0546 0.162937 17.9117 0.258585 17.7916 0.379261L10 8.17085L2.20841 0.379261C2.08828 0.258585 1.94541 0.162937 1.78806 0.0978528C1.63072 0.032769 1.46203 -0.000457064 1.29175 9.81184e-05C1.12187 -0.00203046 0.953339 0.0304942 0.79645 0.0956856C0.63956 0.160877 0.497608 0.257367 0.379261 0.379261C0.257367 0.497608 0.160877 0.63956 0.0956856 0.79645C0.0304942 0.953339 -0.00203046 1.12187 9.81184e-05 1.29175C-0.000457064 1.46203 0.032769 1.63072 0.0978528 1.78806C0.162937 1.94541 0.258585 2.08828 0.379261 2.20841L8.17085 10L0.379261 17.7916C0.258585 17.9117 0.162937 18.0546 0.0978528 18.2119C0.032769 18.3693 -0.000457064 18.538 9.81184e-05 18.7082C-0.00203046 18.8781 0.0304942 19.0467 0.0956856 19.2035C0.160877 19.3604 0.257367 19.5024 0.379261 19.6207C0.497608 19.7426 0.63956 19.8391 0.79645 19.9043C0.953339 19.9695 1.12187 20.002 1.29175 19.9999C1.46203 20.0005 1.63072 19.9672 1.78806 19.9021C1.94541 19.8371 2.08828 19.7414 2.20841 19.6207L10 11.8291L17.7916 19.6207C17.9117 19.7414 18.0546 19.8371 18.2119 19.9021C18.3693 19.9672 18.538 20.0005 18.7082 19.9999C19.0505 19.9988 19.3784 19.8624 19.6204 19.6204C19.8624 19.3784 19.9988 19.0505 19.9999 18.7082C20.0005 18.538 19.9672 18.3693 19.9021 18.2119C19.8371 18.0546 19.7414 17.9117 19.6207 17.7916L11.8291 10Z" fill="black"/>
<path d="M11.8291 10L19.6207 2.20841C19.7414 2.08828 19.8371 1.94541 19.9021 1.78806C19.9672 1.63072 20.0005 1.46203 19.9999 1.29175C20.002 1.12187 19.9695 0.953339 19.9043 0.79645C19.8391 0.63956 19.7426 0.497608 19.6207 0.379261C19.5024 0.257367 19.3604 0.160877 19.2035 0.0956856C19.0467 0.0304942 18.8781 -0.00203046 18.7082 9.81184e-05C18.538 -0.000457064 18.3693 0.032769 18.2119 0.0978528C18.0546 0.162937 17.9117 0.258585 17.7916 0.379261L10 8.17085L2.20841 0.379261C2.08828 0.258585 1.94541 0.162937 1.78806 0.0978528C1.63072 0.032769 1.46203 -0.000457064 1.29175 9.81184e-05C1.12187 -0.00203046 0.953339 0.0304942 0.79645 0.0956856C0.63956 0.160877 0.497608 0.257367 0.379261 0.379261C0.257367 0.497608 0.160877 0.63956 0.0956856 0.79645C0.0304942 0.953339 -0.00203046 1.12187 9.81184e-05 1.29175C-0.000457064 1.46203 0.032769 1.63072 0.0978528 1.78806C0.162937 1.94541 0.258585 2.08828 0.379261 2.20841L8.17085 10L0.379261 17.7916C0.258585 17.9117 0.162937 18.0546 0.0978528 18.2119C0.032769 18.3693 -0.000457064 18.538 9.81184e-05 18.7082C-0.00203046 18.8781 0.0304942 19.0467 0.0956856 19.2035C0.160877 19.3604 0.257367 19.5024 0.379261 19.6207C0.497608 19.7426 0.63956 19.8391 0.79645 19.9043C0.953339 19.9695 1.12187 20.002 1.29175 19.9999C1.46203 20.0005 1.63072 19.9672 1.78806 19.9021C1.94541 19.8371 2.08828 19.7414 2.20841 19.6207L10 11.8291L17.7916 19.6207C17.9117 19.7414 18.0546 19.8371 18.2119 19.9021C18.3693 19.9672 18.538 20.0005 18.7082 19.9999C19.0505 19.9988 19.3784 19.8624 19.6204 19.6204C19.8624 19.3784 19.9988 19.0505 19.9999 18.7082C20.0005 18.538 19.9672 18.3693 19.9021 18.2119C19.8371 18.0546 19.7414 17.9117 19.6207 17.7916L11.8291 10Z" fill="url(#paint0_linear_184_7556)"/>
<path d="M11.8291 10L19.6207 2.20841C19.7414 2.08828 19.8371 1.94541 19.9021 1.78806C19.9672 1.63072 20.0005 1.46203 19.9999 1.29175C20.002 1.12187 19.9695 0.953339 19.9043 0.79645C19.8391 0.63956 19.7426 0.497608 19.6207 0.379261C19.5024 0.257367 19.3604 0.160877 19.2035 0.0956856C19.0467 0.0304942 18.8781 -0.00203046 18.7082 9.81184e-05C18.538 -0.000457064 18.3693 0.032769 18.2119 0.0978528C18.0546 0.162937 17.9117 0.258585 17.7916 0.379261L10 8.17085L2.20841 0.379261C2.08828 0.258585 1.94541 0.162937 1.78806 0.0978528C1.63072 0.032769 1.46203 -0.000457064 1.29175 9.81184e-05C1.12187 -0.00203046 0.953339 0.0304942 0.79645 0.0956856C0.63956 0.160877 0.497608 0.257367 0.379261 0.379261C0.257367 0.497608 0.160877 0.63956 0.0956856 0.79645C0.0304942 0.953339 -0.00203046 1.12187 9.81184e-05 1.29175C-0.000457064 1.46203 0.032769 1.63072 0.0978528 1.78806C0.162937 1.94541 0.258585 2.08828 0.379261 2.20841L8.17085 10L0.379261 17.7916C0.258585 17.9117 0.162937 18.0546 0.0978528 18.2119C0.032769 18.3693 -0.000457064 18.538 9.81184e-05 18.7082C-0.00203046 18.8781 0.0304942 19.0467 0.0956856 19.2035C0.160877 19.3604 0.257367 19.5024 0.379261 19.6207C0.497608 19.7426 0.63956 19.8391 0.79645 19.9043C0.953339 19.9695 1.12187 20.002 1.29175 19.9999C1.46203 20.0005 1.63072 19.9672 1.78806 19.9021C1.94541 19.8371 2.08828 19.7414 2.20841 19.6207L10 11.8291L17.7916 19.6207C17.9117 19.7414 18.0546 19.8371 18.2119 19.9021C18.3693 19.9672 18.538 20.0005 18.7082 19.9999C19.0505 19.9988 19.3784 19.8624 19.6204 19.6204C19.8624 19.3784 19.9988 19.0505 19.9999 18.7082C20.0005 18.538 19.9672 18.3693 19.9021 18.2119C19.8371 18.0546 19.7414 17.9117 19.6207 17.7916L11.8291 10Z" fill="#55A1FF" fill-opacity="0.5"/>
<defs>
<linearGradient id="paint0_linear_184_7556" x1="10" y1="0" x2="-1.19209e-07" y2="9" gradientUnits="userSpaceOnUse">
<stop stop-color="#2F83EA"/>
<stop offset="1" stop-color="#14529E"/>
</linearGradient>
</defs>
</svg>
