<svg width="16" height="10" viewBox="0 0 16 10" fill="none" xmlns="http://www.w3.org/2000/svg">
<path d="M8.00338 6.63963L2.01756 0.271796C1.85314 0.0964574 1.6333 8.8228e-07 1.39889 8.92527e-07C1.16436 9.02779e-07 0.94465 0.0964574 0.779967 0.271796L0.255739 0.829781C0.0907963 1.00484 -3.82962e-07 1.23886 -3.72061e-07 1.48824C-3.6116e-07 1.73761 0.0907964 1.97135 0.255739 2.14655L7.38237 9.72848C7.54758 9.90437 7.76832 10.0007 8.00299 10C8.2387 10.0007 8.45919 9.90451 8.62452 9.72848L15.7443 2.15361C15.9092 1.97841 16 1.74467 16 1.49516C16 1.24578 15.9092 1.01204 15.7443 0.8367L15.22 0.278854C14.8788 -0.0841405 14.3234 -0.0841405 13.9823 0.278854L8.00338 6.63963Z" fill="white"/>
</svg>
