<svg width="39" height="29" viewBox="0 0 39 29" fill="none" xmlns="http://www.w3.org/2000/svg">
<path d="M8.34783 29.0005C6 29.0005 4 28.2167 2.34783 26.6491C0.782609 24.9945 0 22.9915 0 20.6401C0 19.2467 0.26087 17.8969 0.782609 16.5906C1.3913 15.2843 2.30435 13.7167 3.52174 11.8879L11.7391 0.000488281L16.9565 3.39689L10.5652 13.1942C12.1304 13.4554 13.5217 14.2828 14.7391 15.6762C15.9565 16.9825 16.5652 18.6371 16.5652 20.6401C16.5652 22.9915 15.7391 24.9945 14.087 26.6491C12.5217 28.2167 10.6087 29.0005 8.34783 29.0005ZM30.3913 29.0005C28.0435 29.0005 26.0435 28.2167 24.3913 26.6491C22.8261 24.9945 22.0435 22.9915 22.0435 20.6401C22.0435 19.2467 22.3043 17.8969 22.8261 16.5906C23.4348 15.2843 24.3478 13.7167 25.5652 11.8879L33.7826 0.000488281L39 3.39689L32.6087 13.1942C34.1739 13.4554 35.5652 14.2828 36.7826 15.6762C38 16.9825 38.6087 18.6371 38.6087 20.6401C38.6087 22.9915 37.7826 24.9945 36.1304 26.6491C34.5652 28.2167 32.6522 29.0005 30.3913 29.0005Z" fill="url(#paint0_linear_156_3270)"/>
<defs>
<linearGradient id="paint0_linear_156_3270" x1="0" y1="0.000488281" x2="39" y2="29.0005" gradientUnits="userSpaceOnUse">
<stop stop-color="#1761BB"/>
<stop offset="1" stop-color="#0E52A5"/>
</linearGradient>
</defs>
</svg>
