<svg width="45" height="47" viewBox="0 0 45 47" fill="none" xmlns="http://www.w3.org/2000/svg">
<path fill-rule="evenodd" clip-rule="evenodd" d="M6.71881 38.4148L4.43871 36.1419L6.06333 32.4996C4.99046 30.7701 4.2057 28.8756 3.72752 26.8957L0 25.4656V19.3971L3.72752 17.967C4.2057 15.9809 4.99046 14.0926 6.06333 12.357L4.43871 8.71468L8.74254 4.42456L12.3965 6.044C14.1376 4.97456 16.0321 4.1923 18.0184 3.72171L19.4591 0H25.547L26.9816 3.72171C28.9679 4.1923 30.8624 4.97456 32.6035 6.044L36.2575 4.42456L40.5613 8.71468L38.9428 12.357C40.0156 14.0926 40.8004 15.9809 41.2725 17.967L45 19.3971V25.4656L41.2725 26.8957C40.8004 28.8756 40.0095 30.764 38.9428 32.4996L40.5613 36.1419L38.2811 38.4149C37.0546 36.5778 35.514 34.9669 33.7356 33.6588C36.6246 30.7867 38.4124 26.8146 38.4124 22.4267C38.4124 13.6667 31.2865 6.57266 22.4984 6.57266C13.7104 6.57266 6.59367 13.6667 6.59367 22.4267C6.59367 26.8142 8.37889 30.786 11.2652 33.658C9.48643 34.9662 7.94551 36.5774 6.71881 38.4148ZM22.5001 13.056C27.3511 13.056 31.2836 16.976 31.2836 21.8115C31.2836 26.6471 27.3511 30.5671 22.5001 30.5671C17.649 30.5671 13.7165 26.6471 13.7165 21.8115C13.7165 16.976 17.649 13.056 22.5001 13.056ZM14.9588 33.2586C14.968 33.2788 14.9782 33.2988 14.9892 33.3183L18.5062 39.5658C18.6323 39.7898 18.8607 39.938 19.1173 39.9622C19.3501 39.9843 19.5793 39.9017 19.744 39.7396L18.9161 43.7403C18.8655 43.9849 18.9349 44.2387 19.1029 44.424L21.4402 46.9999C14.4654 46.9997 7.72203 46.9995 5.78209 46.9991C5.64084 46.9991 5.50636 46.9383 5.41324 46.8323C5.32022 46.7263 5.27749 46.5854 5.29625 46.4458C6.11274 40.6201 9.83633 35.723 14.9588 33.2586ZM23.5596 46.9999L25.897 44.424C26.0651 44.2387 26.1344 43.9849 26.0838 43.7403L25.2559 39.7396C25.4206 39.9017 25.6498 39.9843 25.8826 39.9622C26.1392 39.938 26.3676 39.7898 26.4937 39.5658L30.0105 33.3183C30.0215 33.2987 30.0317 33.2788 30.0409 33.2586C35.1636 35.723 38.8875 40.6201 39.7047 46.4457C39.7235 46.5855 39.6807 46.7267 39.5875 46.8329C39.4941 46.9391 39.3595 47 39.2179 47C37.278 47 30.5344 47 23.5596 46.9999ZM25.6698 31.8339L22.4999 34.2812L19.3301 31.8339C20.3578 31.645 21.4173 31.5463 22.4999 31.5463C23.5825 31.5463 24.642 31.645 25.6698 31.8339ZM21.8668 37.2353L22.4999 36.487L23.1331 37.2354L24.464 43.6677L22.4999 45.8322L20.5359 43.6677L21.8668 37.2353ZM20.5411 36.3722C20.5378 36.376 20.5345 36.38 20.5313 36.3838L19.3219 37.8133L16.7995 33.3328C17.2413 33.1716 17.692 33.0287 18.1504 32.9047L21.371 35.3912L20.5411 36.3722ZM24.4686 36.3839C24.4654 36.38 24.4621 36.3761 24.4588 36.3722L23.6288 35.3912L26.8495 32.9047C27.308 33.0287 27.7585 33.1716 28.2003 33.3327L25.678 37.8133L24.4686 36.3839Z" fill="white"/>
<path fill-rule="evenodd" clip-rule="evenodd" d="M6.71881 38.4148L4.43871 36.1419L6.06333 32.4996C4.99046 30.7701 4.2057 28.8756 3.72752 26.8957L0 25.4656V19.3971L3.72752 17.967C4.2057 15.9809 4.99046 14.0926 6.06333 12.357L4.43871 8.71468L8.74254 4.42456L12.3965 6.044C14.1376 4.97456 16.0321 4.1923 18.0184 3.72171L19.4591 0H25.547L26.9816 3.72171C28.9679 4.1923 30.8624 4.97456 32.6035 6.044L36.2575 4.42456L40.5613 8.71468L38.9428 12.357C40.0156 14.0926 40.8004 15.9809 41.2725 17.967L45 19.3971V25.4656L41.2725 26.8957C40.8004 28.8756 40.0095 30.764 38.9428 32.4996L40.5613 36.1419L38.2811 38.4149C37.0546 36.5778 35.514 34.9669 33.7356 33.6588C36.6246 30.7867 38.4124 26.8146 38.4124 22.4267C38.4124 13.6667 31.2865 6.57266 22.4984 6.57266C13.7104 6.57266 6.59367 13.6667 6.59367 22.4267C6.59367 26.8142 8.37889 30.786 11.2652 33.658C9.48643 34.9662 7.94551 36.5774 6.71881 38.4148Z" fill="white"/>
<path fill-rule="evenodd" clip-rule="evenodd" d="M6.71881 38.4148L4.43871 36.1419L6.06333 32.4996C4.99046 30.7701 4.2057 28.8756 3.72752 26.8957L0 25.4656V19.3971L3.72752 17.967C4.2057 15.9809 4.99046 14.0926 6.06333 12.357L4.43871 8.71468L8.74254 4.42456L12.3965 6.044C14.1376 4.97456 16.0321 4.1923 18.0184 3.72171L19.4591 0H25.547L26.9816 3.72171C28.9679 4.1923 30.8624 4.97456 32.6035 6.044L36.2575 4.42456L40.5613 8.71468L38.9428 12.357C40.0156 14.0926 40.8004 15.9809 41.2725 17.967L45 19.3971V25.4656L41.2725 26.8957C40.8004 28.8756 40.0095 30.764 38.9428 32.4996L40.5613 36.1419L38.2811 38.4149C37.0546 36.5778 35.514 34.9669 33.7356 33.6588C36.6246 30.7867 38.4124 26.8146 38.4124 22.4267C38.4124 13.6667 31.2865 6.57266 22.4984 6.57266C13.7104 6.57266 6.59367 13.6667 6.59367 22.4267C6.59367 26.8142 8.37889 30.786 11.2652 33.658C9.48643 34.9662 7.94551 36.5774 6.71881 38.4148Z" fill="url(#paint0_linear_156_3269)"/>
<defs>
<linearGradient id="paint0_linear_156_3269" x1="0" y1="0" x2="49.2288" y2="31.886" gradientUnits="userSpaceOnUse">
<stop stop-color="#1761BB"/>
<stop offset="1" stop-color="#0E52A5"/>
</linearGradient>
</defs>
</svg>
