<svg width="33" height="32" viewBox="0 0 33 32" fill="none" xmlns="http://www.w3.org/2000/svg">
<path fill-rule="evenodd" clip-rule="evenodd" d="M14.7182 0.0454075C12.4962 0.385122 10.9513 0.869607 9.13813 1.79528C2.55354 5.15677 -0.848543 12.6396 1.00002 19.6948C1.14147 20.2346 1.48455 21.2112 1.76242 21.865C2.04017 22.5188 2.29196 23.1944 2.32168 23.3665C2.35152 23.5385 1.95992 25.5514 1.45157 27.8397C0.943219 30.128 0.532051 32.0001 0.537945 32C0.543838 32 2.50902 31.5546 4.90506 31.0101L8.16913 30.2686C8.8795 30.1072 9.62258 30.1724 10.294 30.455C14.1767 32.089 18.5925 32.1199 22.541 30.5407C26.789 28.8418 30.2794 25.166 31.7037 20.8919C32.3415 18.978 32.5 17.976 32.5 15.859C32.5 13.0968 31.9698 10.9013 30.7415 8.57619C28.5369 4.40352 24.5879 1.39363 19.9221 0.329692C18.8791 0.0918288 15.5894 -0.0878508 14.7182 0.0454075ZM19.8594 2.89951C23.7131 3.88575 26.9961 6.58007 28.7128 10.1658C30.4761 13.8486 30.4902 17.7817 28.753 21.4711C26.7293 25.7684 22.7226 28.5871 17.8616 29.1329C15.5339 29.3943 12.9662 28.9422 10.6643 27.8659C9.98629 27.5488 9.22216 27.4659 8.49194 27.6303L6.79902 28.0114C5.24826 28.3605 3.95344 28.6201 3.92159 28.5882C3.88974 28.5564 4.13789 27.2829 4.47307 25.7583L4.76046 24.4513C4.96892 23.5033 4.84649 22.5124 4.41351 21.6436C4.03996 20.8941 3.59644 19.7481 3.4096 19.0497C3.11204 17.9377 3.07505 17.5757 3.07768 15.7964C3.08032 14.0459 3.12145 13.6418 3.40484 12.5799C4.40825 8.82006 7.05043 5.57569 10.4548 3.92304C12.7406 2.81343 14.4169 2.45106 16.9126 2.52701C18.1902 2.56593 18.913 2.65727 19.8594 2.89951ZM10.4783 9.34408C9.13449 10.5802 8.84332 12.4936 9.70378 14.4351C10.4628 16.1478 12.8017 18.9632 14.5088 20.2193C16.2895 21.5295 18.9086 22.5261 20.6117 22.5415C21.535 22.5499 21.6798 22.515 22.4299 22.1036C23.5308 21.4997 23.9393 20.9153 24.0276 19.8174C24.0677 19.3193 23.7981 18.8476 23.3486 18.6292L22.4156 18.176C21.4924 17.7276 20.6169 17.3606 20.4699 17.3606C20.3064 17.3605 20.0678 17.5425 19.8552 17.8297C19.2664 18.625 18.6282 19.2374 18.3884 19.2374C17.7199 19.2374 15.4076 17.752 14.4891 16.7325C13.8965 16.0748 12.9 14.6595 12.9 14.4756C12.9 14.4187 13.1821 14.0503 13.5269 13.6571C13.9358 13.1908 14.1539 12.8287 14.1539 12.6159C14.1539 12.2201 12.9983 9.41791 12.6988 9.08783C12.5356 8.90777 12.3107 8.85197 11.7492 8.85197C11.0672 8.85197 10.9744 8.88788 10.4783 9.34408Z" fill="white"/>
</svg>
